<?xml version="1.0" encoding="UTF-8" standalone="no"?>
<!-- Created with Inkscape (http://www.inkscape.org/) -->

<svg
   width="875.26904"
   height="322.39828"
   viewBox="0 0 231.5816 85.301211"
   version="1.1"
   id="svg5"
   inkscape:version="1.2.1 (9c6d41e410, 2022-07-14)"
   xml:space="preserve"
   sodipodi:docname="img_7.svg"
   xmlns:inkscape="http://www.inkscape.org/namespaces/inkscape"
   xmlns:sodipodi="http://sodipodi.sourceforge.net/DTD/sodipodi-0.dtd"
   xmlns:xlink="http://www.w3.org/1999/xlink"
   xmlns="http://www.w3.org/2000/svg"
   xmlns:svg="http://www.w3.org/2000/svg"><sodipodi:namedview
     id="namedview7"
     pagecolor="#000000"
     bordercolor="#ffffff"
     borderopacity="1"
     inkscape:showpageshadow="0"
     inkscape:pageopacity="0"
     inkscape:pagecheckerboard="1"
     inkscape:deskcolor="#000000"
     inkscape:document-units="px"
     showgrid="false"
     inkscape:zoom="1.3350176"
     inkscape:cx="360.29488"
     inkscape:cy="151.68339"
     inkscape:window-width="1920"
     inkscape:window-height="1013"
     inkscape:window-x="1024"
     inkscape:window-y="31"
     inkscape:window-maximized="1"
     inkscape:current-layer="layer1" /><defs
     id="defs2"><color-profile
       name="sRGB"
       xlink:href="file:///usr/share/color/icc/colord/sRGB.icc"
       id="color-profile807" /><clipPath
       clipPathUnits="userSpaceOnUse"
       id="clipPath924"><rect
         style="opacity:0.636862;fill:#1a1a1a;stroke-width:0.261034"
         id="rect926"
         width="84.318352"
         height="76.680992"
         x="368.37595"
         y="38.583366" /></clipPath><clipPath
       clipPathUnits="userSpaceOnUse"
       id="clipPath928"><rect
         style="opacity:0.636862;fill:#1a1a1a;stroke-width:0.261034"
         id="rect930"
         width="84.318352"
         height="76.680992"
         x="368.37595"
         y="38.583366" /></clipPath></defs><g
     inkscape:label="Camada 1"
     inkscape:groupmode="layer"
     id="layer1"
     transform="translate(-363.3396,106.60345)"><g
       id="g2265"
       transform="matrix(1.1931937,0,0,1.1931937,-70.999673,-6.0113524)" /><g
       id="g2254"
       transform="matrix(1.1931942,0,0,1.1931942,-759.15458,-258.15799)"
       style="stroke:#1a1a1a;stroke-opacity:1"><path
         id="path2149"
         style="opacity:0.5;fill:none;stroke:#1a1a1a;stroke-width:1.07511;stroke-linecap:round;stroke-linejoin:bevel;stroke-opacity:1"
         d="M 1130.804,186.90881 H 944.77596"
         sodipodi:nodetypes="cc" /><g
         id="g2007"
         transform="translate(545.86454,108.58837)"
         style="stroke:#1a1a1a;stroke-opacity:1"><path
           style="opacity:1;fill:none;stroke:#1a1a1a;stroke-width:1.05833;stroke-linecap:round;stroke-linejoin:bevel;stroke-dasharray:none;stroke-opacity:1"
           d="m 521.47475,78.342992 c 3.82873,-4.200298 7.85239,-8.174946 13.70798,-10.028851 5.73107,1.863828 8.45332,6.331553 11.84058,10.223761"
           id="path1980"
           sodipodi:nodetypes="ccc" /><path
           style="opacity:1;fill:none;stroke:#1a1a1a;stroke-width:1.05833;stroke-linecap:round;stroke-linejoin:bevel;stroke-dasharray:none;stroke-opacity:1"
           d="m 524.14339,66.852241 c 2.68965,-2.186524 5.8781,-3.760692 10.43977,-3.649033 4.89443,0.834391 7.92842,3.527893 11.56258,5.621658"
           id="path1982"
           sodipodi:nodetypes="ccc" /><path
           style="opacity:1;fill:none;stroke:#1a1a1a;stroke-width:1.05833;stroke-linecap:round;stroke-linejoin:bevel;stroke-dasharray:none;stroke-opacity:1"
           d="m 535.34434,68.36607 c -0.94207,-1.820147 -1.23248,-4.181355 -0.90218,-6.45618"
           id="path1984"
           sodipodi:nodetypes="cc" /><path
           style="opacity:1;fill:none;stroke:#1a1a1a;stroke-width:1.05833;stroke-linecap:round;stroke-linejoin:bevel;stroke-dasharray:none;stroke-opacity:1"
           d="m 534.43057,61.779747 c 2.7977,-0.08544 8.83906,-0.447794 8.83906,-2.404066 0,-1.357495 -6.79241,-1.249173 -9.16767,-1.249173 -2.5696,0 -8.76036,0.609629 -8.76036,2.168445 0,2.42686 5.70978,1.587987 9.08897,1.484794 z"
           id="path1986"
           sodipodi:nodetypes="sssss" /><path
           style="opacity:1;fill:none;stroke:#1a1a1a;stroke-width:1.05833;stroke-linecap:round;stroke-linejoin:bevel;stroke-dasharray:none;stroke-opacity:1"
           d="m 507.51832,67.696047 c -5.56024,-2.945728 -11.18411,-5.596733 -17.77317,-7.891962 7.72328,-0.822888 15.91381,0.942647 24.37884,4.283895"
           id="path1988"
           sodipodi:nodetypes="ccc" /><path
           style="opacity:1;fill:none;stroke:#1a1a1a;stroke-width:1.05833;stroke-linecap:round;stroke-linejoin:bevel;stroke-dasharray:none;stroke-opacity:1"
           d="m 490.12329,59.759452 c 2.02747,-7.303883 7.09733,-10.071645 11.99597,-22.109961 0,0 -3.8581,-1.508614 -3.25774,-4.322761 0.35473,-1.662788 2.92495,-2.749566 4.56035,-2.284619 2.69626,0.766555 5.05085,2.334355 4.36128,4.809037 -0.57957,2.079923 -5.66389,1.798343 -5.66389,1.798343"
           id="path1990"
           sodipodi:nodetypes="cssssc" /><path
           style="opacity:1;fill:none;stroke:#1a1a1a;stroke-width:1.05833;stroke-linecap:round;stroke-linejoin:bevel;stroke-dasharray:none;stroke-opacity:1"
           d="m 499.48472,43.076185 c 3.97749,5.764265 7.51344,11.679838 10.19376,17.888616"
           id="path1992"
           sodipodi:nodetypes="cc" /><path
           style="opacity:1;fill:none;stroke:#1a1a1a;stroke-width:1.05833;stroke-linecap:round;stroke-linejoin:bevel;stroke-dasharray:none;stroke-opacity:1"
           d="m 500.78846,40.814749 c 4.63785,6.091166 8.51605,12.559504 11.0173,19.711511"
           id="path1994"
           sodipodi:nodetypes="cc" /><path
           style="opacity:1;fill:none;stroke:#1a1a1a;stroke-width:1.05833;stroke-linecap:round;stroke-linejoin:bevel;stroke-dasharray:none;stroke-opacity:1"
           d="m 508.08777,60.196872 0.5783,1.067822 3.27003,-0.662717 c 0,0 16.36732,-1.50528 26.25544,-4.008203 1.14821,-0.290641 2.65966,-1.018185 2.41168,-2.609517 -0.24192,-1.552447 -3.08295,-1.421426 -4.60192,-1.019752 -8.34926,2.207863 -24.43404,6.687788 -24.43404,6.687788 z"
           id="path1996"
           sodipodi:nodetypes="cccssscc" /></g></g></g></svg>
