<?xml version="1.0" encoding="UTF-8" standalone="no"?>
<!-- Created with Inkscape (http://www.inkscape.org/) -->

<svg
   width="875.26904"
   height="322.39828"
   viewBox="0 0 231.5816 85.301211"
   version="1.1"
   id="svg5"
   inkscape:version="1.2.1 (9c6d41e410, 2022-07-14)"
   xml:space="preserve"
   sodipodi:docname="img_1.svg"
   xmlns:inkscape="http://www.inkscape.org/namespaces/inkscape"
   xmlns:sodipodi="http://sodipodi.sourceforge.net/DTD/sodipodi-0.dtd"
   xmlns:xlink="http://www.w3.org/1999/xlink"
   xmlns="http://www.w3.org/2000/svg"
   xmlns:svg="http://www.w3.org/2000/svg"><sodipodi:namedview
     id="namedview7"
     pagecolor="#000000"
     bordercolor="#ffffff"
     borderopacity="1"
     inkscape:showpageshadow="0"
     inkscape:pageopacity="0"
     inkscape:pagecheckerboard="1"
     inkscape:deskcolor="#000000"
     inkscape:document-units="px"
     showgrid="false"
     inkscape:zoom="1.3350176"
     inkscape:cx="453.17755"
     inkscape:cy="318.72239"
     inkscape:window-width="1920"
     inkscape:window-height="1013"
     inkscape:window-x="1024"
     inkscape:window-y="31"
     inkscape:window-maximized="1"
     inkscape:current-layer="layer1" /><defs
     id="defs2"><color-profile
       name="sRGB"
       xlink:href="file:///usr/share/color/icc/colord/sRGB.icc"
       id="color-profile1495" /><clipPath
       clipPathUnits="userSpaceOnUse"
       id="clipPath924"><rect
         style="opacity:0.636862;fill:#1a1a1a;stroke-width:0.261034"
         id="rect926"
         width="84.318352"
         height="76.680992"
         x="368.37595"
         y="38.583366" /></clipPath><clipPath
       clipPathUnits="userSpaceOnUse"
       id="clipPath928"><rect
         style="opacity:0.636862;fill:#1a1a1a;stroke-width:0.261034"
         id="rect930"
         width="84.318352"
         height="76.680992"
         x="368.37595"
         y="38.583366" /></clipPath></defs><g
     inkscape:label="Camada 1"
     inkscape:groupmode="layer"
     id="layer1"
     transform="translate(-363.3396,106.60345)"><g
       id="g2265"
       transform="matrix(1.1931937,0,0,1.1931937,-70.999673,-6.0113524)"
       style="stroke:#1a1a1a;stroke-opacity:1"><path
         id="rect1964"
         style="opacity:0.5;fill:none;stroke:#1a1a1a;stroke-width:1.07511;stroke-linecap:round;stroke-linejoin:bevel;stroke-opacity:1"
         d="M 554.07082,-24.720963 H 368.04279"
         sodipodi:nodetypes="cc" /><g
         id="g1970"
         transform="translate(93.759673,-103.63852)"
         style="stroke:#1a1a1a;stroke-opacity:1"><path
           style="opacity:1;fill:none;stroke:#1a1a1a;stroke-width:1.05833;stroke-linecap:round;stroke-dasharray:none;stroke-opacity:1"
           d="m 397.038,66.760208 c 5.41849,-2.752025 10.06225,-6.399189 13.35077,-11.612181 l 11.92014,8.062216"
           id="path1723"
           sodipodi:nodetypes="ccc" /><path
           style="opacity:1;fill:none;stroke:#1a1a1a;stroke-width:1.05833;stroke-linecap:round;stroke-linejoin:bevel;stroke-dasharray:none;stroke-opacity:1"
           d="m 404.91899,78.739062 5.00544,-11.132285 5.11707,11.837305"
           id="path1884" /><path
           style="opacity:1;fill:none;stroke:#1a1a1a;stroke-width:1.05833;stroke-linecap:round;stroke-linejoin:bevel;stroke-dasharray:none;stroke-opacity:1"
           d="m 409.92443,67.606777 c 0.56992,-6.920069 1.24896,-16.207631 0.98854,-19.576698 0,0 -4.33532,-0.446563 -4.4737,-2.086129 -0.15998,-1.895511 2.80006,-3.074281 4.69467,-3.244546 1.61716,-0.145331 4.27964,0.394505 4.43673,2.010566 0.18446,1.89769 -4.6577,3.320109 -4.6577,3.320109"
           id="path1886"
           sodipodi:nodetypes="cssssc" /></g><g
         id="g2145"
         transform="matrix(-1,0,0,1,804.76309,-103.63852)"
         style="stroke:#1a1a1a;stroke-opacity:1"><path
           style="opacity:1;fill:none;stroke:#1a1a1a;stroke-width:1.05833;stroke-linecap:round;stroke-dasharray:none;stroke-opacity:1"
           d="m 397.038,66.760208 c 5.41849,-2.752025 10.06225,-6.399189 13.35077,-11.612181 l 11.92014,8.062216"
           id="path2139"
           sodipodi:nodetypes="ccc" /><path
           style="opacity:1;fill:none;stroke:#1a1a1a;stroke-width:1.05833;stroke-linecap:round;stroke-linejoin:bevel;stroke-dasharray:none;stroke-opacity:1"
           d="m 404.91899,78.739062 5.00544,-11.132285 5.11707,11.837305"
           id="path2141" /><path
           style="opacity:1;fill:none;stroke:#1a1a1a;stroke-width:1.05833;stroke-linecap:round;stroke-linejoin:bevel;stroke-dasharray:none;stroke-opacity:1"
           d="m 409.92443,67.606777 c 0.56992,-6.920069 1.24896,-16.207631 0.98854,-19.576698 0,0 -4.33532,-0.446563 -4.4737,-2.086129 -0.15998,-1.895511 2.80006,-3.074281 4.69467,-3.244546 1.61716,-0.145331 4.27964,0.394505 4.43673,2.010566 0.18446,1.89769 -4.6577,3.320109 -4.6577,3.320109"
           id="path2143"
           sodipodi:nodetypes="cssssc" /></g></g></g></svg>
