<?xml version="1.0" encoding="UTF-8" standalone="no"?>
<!-- Created with Inkscape (http://www.inkscape.org/) -->

<svg
   width="875.26904"
   height="322.39828"
   viewBox="0 0 231.5816 85.301211"
   version="1.1"
   id="svg5"
   inkscape:version="1.2.1 (9c6d41e410, 2022-07-14)"
   xml:space="preserve"
   sodipodi:docname="img_6.svg"
   xmlns:inkscape="http://www.inkscape.org/namespaces/inkscape"
   xmlns:sodipodi="http://sodipodi.sourceforge.net/DTD/sodipodi-0.dtd"
   xmlns:xlink="http://www.w3.org/1999/xlink"
   xmlns="http://www.w3.org/2000/svg"
   xmlns:svg="http://www.w3.org/2000/svg"><sodipodi:namedview
     id="namedview7"
     pagecolor="#000000"
     bordercolor="#ffffff"
     borderopacity="1"
     inkscape:showpageshadow="0"
     inkscape:pageopacity="0"
     inkscape:pagecheckerboard="1"
     inkscape:deskcolor="#000000"
     inkscape:document-units="px"
     showgrid="false"
     inkscape:zoom="0.6675088"
     inkscape:cx="512.3528"
     inkscape:cy="60.673357"
     inkscape:window-width="1920"
     inkscape:window-height="1013"
     inkscape:window-x="1024"
     inkscape:window-y="31"
     inkscape:window-maximized="1"
     inkscape:current-layer="layer1" /><defs
     id="defs2"><color-profile
       name="sRGB"
       xlink:href="file:///usr/share/color/icc/colord/sRGB.icc"
       id="color-profile808" /><clipPath
       clipPathUnits="userSpaceOnUse"
       id="clipPath924"><rect
         style="opacity:0.636862;fill:#1a1a1a;stroke-width:0.261034"
         id="rect926"
         width="84.318352"
         height="76.680992"
         x="368.37595"
         y="38.583366" /></clipPath><clipPath
       clipPathUnits="userSpaceOnUse"
       id="clipPath928"><rect
         style="opacity:0.636862;fill:#1a1a1a;stroke-width:0.261034"
         id="rect930"
         width="84.318352"
         height="76.680992"
         x="368.37595"
         y="38.583366" /></clipPath></defs><g
     inkscape:label="Camada 1"
     inkscape:groupmode="layer"
     id="layer1"
     transform="translate(-363.3396,106.60345)"><g
       id="g2213"
       transform="matrix(1.1931942,0,0,1.1931942,-423.71135,-258.81309)"
       style="stroke:#1a1a1a;stroke-opacity:1"><path
         id="path2115"
         style="opacity:0.5;fill:none;stroke:#1a1a1a;stroke-width:1.07511;stroke-linecap:round;stroke-linejoin:bevel;stroke-opacity:1"
         d="M 849.67353,186.90881 H 663.6455"
         sodipodi:nodetypes="cc" /><g
         id="g2123"
         transform="translate(389.36238,107.99125)"
         style="stroke:#1a1a1a;stroke-opacity:1"><path
           style="opacity:1;fill:none;stroke:#1a1a1a;stroke-width:1.05833;stroke-linecap:round;stroke-dasharray:none;stroke-opacity:1"
           d="m 397.038,66.760208 c 5.41849,-2.752025 10.06225,-6.399189 13.35077,-11.612181 l 11.92014,8.062216"
           id="path2117"
           sodipodi:nodetypes="ccc" /><path
           style="opacity:1;fill:none;stroke:#1a1a1a;stroke-width:1.05833;stroke-linecap:round;stroke-linejoin:bevel;stroke-dasharray:none;stroke-opacity:1"
           d="m 404.91899,78.739062 5.00544,-11.132285 5.11707,11.837305"
           id="path2119" /><path
           style="opacity:1;fill:none;stroke:#1a1a1a;stroke-width:1.05833;stroke-linecap:round;stroke-linejoin:bevel;stroke-dasharray:none;stroke-opacity:1"
           d="m 409.92443,67.606777 c 0.56992,-6.920069 1.24896,-16.207631 0.98854,-19.576698 0,0 -4.33532,-0.446563 -4.4737,-2.086129 -0.15998,-1.895511 2.80006,-3.074281 4.69467,-3.244546 1.61716,-0.145331 4.27964,0.394505 4.43673,2.010566 0.18446,1.89769 -4.6577,3.320109 -4.6577,3.320109"
           id="path2121"
           sodipodi:nodetypes="cssssc" /></g><g
         id="g2137"
         transform="translate(391.42294,108.00085)"
         style="stroke:#1a1a1a;stroke-opacity:1"><path
           style="opacity:1;fill:none;stroke:#1a1a1a;stroke-width:1.05833;stroke-linecap:round;stroke-linejoin:bevel;stroke-dasharray:none;stroke-opacity:1"
           d="m 364.66004,78.265485 c 1.81322,-4.486061 4.89858,-7.460517 9.17771,-9.016474 l 5.15247,10.425441"
           id="path2125"
           sodipodi:nodetypes="ccc" /><path
           style="opacity:1;fill:none;stroke:#1a1a1a;stroke-width:1.05833;stroke-linecap:round;stroke-linejoin:bevel;stroke-dasharray:none;stroke-opacity:1"
           d="m 373.83775,69.249011 0.40492,-22.368303"
           id="path2127" /><path
           style="opacity:1;fill:none;stroke:#1a1a1a;stroke-width:1.05833;stroke-linecap:round;stroke-linejoin:bevel;stroke-dasharray:none;stroke-opacity:1"
           d="m 375.55506,46.890594 c 1.82981,0.03457 2.96251,-1.813858 3.27083,-3.354073 0.33183,-1.657693 -2.01253,-3.040716 -3.70075,-3.130103 -2.6558,-0.140619 -5.93626,0.05776 -5.92306,2.474459 0.0126,2.301058 4.03623,3.965953 6.35298,4.009717 z"
           id="path2129"
           sodipodi:nodetypes="sssss" /><path
           style="opacity:1;fill:none;stroke:#1a1a1a;stroke-width:1.05833;stroke-linecap:round;stroke-linejoin:bevel;stroke-dasharray:none;stroke-opacity:1"
           d="m 374.04021,53.584284 c 0,0 7.73014,-5.386458 6.82257,-9.404599 -0.58431,-2.586951 -14.20254,5.521336 -17.756,5.436614"
           id="path2131"
           sodipodi:nodetypes="csc" /><path
           style="opacity:1;fill:none;stroke:#1a1a1a;stroke-width:1.05833;stroke-linecap:round;stroke-linejoin:bevel;stroke-dasharray:none;stroke-opacity:1"
           d="m 369.23934,43.661945 c -3.30892,2.612834 -6.13256,5.954354 -6.13256,5.954354"
           id="path2133"
           sodipodi:nodetypes="cc" /><path
           style="opacity:1;fill:none;stroke:#1a1a1a;stroke-width:1.05833;stroke-linecap:round;stroke-linejoin:bevel;stroke-dasharray:none;stroke-opacity:1"
           d="m 365.57435,47.811523 c 0,0 0.87252,0.617481 0.34116,1.210756 -0.4135,0.46167 -1.91514,1.007971 -2.61876,1.645405 -3.99366,3.617983 -10.77443,10.310941 -14.72983,13.947513 -0.9614,0.883904 -2.3316,0.852909 -3.34794,-0.543238 -0.85965,-1.180914 0.1801,-2.529062 1.11726,-3.649468 5.55076,-6.636146 14.06237,-9.881928 16.24589,-10.633269 0.33826,-0.116392 2.99222,-1.977699 2.99222,-1.977699 z"
           id="path2135"
           sodipodi:nodetypes="cssssssc" /></g></g><g
       id="g2265"
       transform="matrix(1.1931937,0,0,1.1931937,-70.999673,-6.0113524)" /></g></svg>
