<?xml version="1.0" encoding="UTF-8" standalone="no"?>
<!-- Created with Inkscape (http://www.inkscape.org/) -->

<svg
   width="875.26904"
   height="322.39828"
   viewBox="0 0 231.5816 85.301211"
   version="1.1"
   id="svg5"
   inkscape:version="1.2.1 (9c6d41e410, 2022-07-14)"
   xml:space="preserve"
   sodipodi:docname="img_win.svg"
   xmlns:inkscape="http://www.inkscape.org/namespaces/inkscape"
   xmlns:sodipodi="http://sodipodi.sourceforge.net/DTD/sodipodi-0.dtd"
   xmlns:xlink="http://www.w3.org/1999/xlink"
   xmlns="http://www.w3.org/2000/svg"
   xmlns:svg="http://www.w3.org/2000/svg"><sodipodi:namedview
     id="namedview7"
     pagecolor="#000000"
     bordercolor="#ffffff"
     borderopacity="1"
     inkscape:showpageshadow="0"
     inkscape:pageopacity="0"
     inkscape:pagecheckerboard="1"
     inkscape:deskcolor="#000000"
     inkscape:document-units="px"
     showgrid="false"
     inkscape:zoom="1.3350176"
     inkscape:cx="479.39443"
     inkscape:cy="168.91163"
     inkscape:window-width="1920"
     inkscape:window-height="1013"
     inkscape:window-x="1024"
     inkscape:window-y="31"
     inkscape:window-maximized="1"
     inkscape:current-layer="layer1" /><defs
     id="defs2"><color-profile
       name="sRGB"
       xlink:href="file:///usr/share/color/icc/colord/sRGB.icc"
       id="color-profile516" /><clipPath
       clipPathUnits="userSpaceOnUse"
       id="clipPath924"><rect
         style="opacity:0.636862;fill:#1a1a1a;stroke-width:0.261034"
         id="rect926"
         width="84.318352"
         height="76.680992"
         x="368.37595"
         y="38.583366" /></clipPath><clipPath
       clipPathUnits="userSpaceOnUse"
       id="clipPath928"><rect
         style="opacity:0.636862;fill:#1a1a1a;stroke-width:0.261034"
         id="rect930"
         width="84.318352"
         height="76.680992"
         x="368.37595"
         y="38.583366" /></clipPath></defs><g
     inkscape:label="Camada 1"
     inkscape:groupmode="layer"
     id="layer1"
     transform="translate(-363.3396,106.60345)"><path
       id="rect1964"
       style="opacity:0.5;fill:none;stroke:#1a1a1a;stroke-width:1.28281;stroke-linecap:round;stroke-linejoin:bevel;stroke-opacity:1"
       d="M 590.11414,-35.50825 H 368.14667"
       sodipodi:nodetypes="cc" /><g
       id="g1970"
       transform="matrix(1.1931937,0,0,1.1931937,40.873778,-129.67218)"
       style="stroke:#1a1a1a;stroke-opacity:1"><path
         style="opacity:1;fill:none;stroke:#1a1a1a;stroke-width:1.05833;stroke-linecap:round;stroke-dasharray:none;stroke-opacity:1"
         d="m 397.038,66.760208 c 5.41849,-2.752025 10.06225,-6.399189 13.35077,-11.612181 l 11.92014,8.062216"
         id="path1723"
         sodipodi:nodetypes="ccc" /><path
         style="opacity:1;fill:none;stroke:#1a1a1a;stroke-width:1.05833;stroke-linecap:round;stroke-linejoin:bevel;stroke-dasharray:none;stroke-opacity:1"
         d="m 404.91899,78.739062 5.00544,-11.132285 5.11707,11.837305"
         id="path1884" /><path
         style="opacity:1;fill:none;stroke:#1a1a1a;stroke-width:1.05833;stroke-linecap:round;stroke-linejoin:bevel;stroke-dasharray:none;stroke-opacity:1"
         d="m 409.92443,67.606777 c 0.56992,-6.920069 1.24896,-16.207631 0.98854,-19.576698 0,0 -4.33532,-0.446563 -4.4737,-2.086129 -0.15998,-1.895511 2.80006,-3.074281 4.69467,-3.244546 1.61716,-0.145331 4.27964,0.394505 4.43673,2.010566 0.18446,1.89769 -4.6577,3.320109 -4.6577,3.320109"
         id="path1886"
         sodipodi:nodetypes="cssssc" /></g><g
       id="g2145"
       transform="matrix(-1.1931937,0,0,1.1931937,920.9169,-129.67218)"
       style="stroke:#1a1a1a;stroke-opacity:1"><path
         style="opacity:1;fill:none;stroke:#1a1a1a;stroke-width:1.05833;stroke-linecap:round;stroke-dasharray:none;stroke-opacity:1"
         d="m 397.34086,59.016595 c 5.10196,4.674757 9.75939,1.344424 13.04791,-3.868568 l 11.92014,8.062216"
         id="path2139"
         sodipodi:nodetypes="ccc" /><path
         style="opacity:1;fill:none;stroke:#1a1a1a;stroke-width:1.05833;stroke-linecap:round;stroke-linejoin:bevel;stroke-dasharray:none;stroke-opacity:1"
         d="m 404.91899,78.739062 5.00544,-11.132285 5.11707,11.837305"
         id="path2141" /><path
         style="opacity:1;fill:none;stroke:#1a1a1a;stroke-width:1.05833;stroke-linecap:round;stroke-linejoin:bevel;stroke-dasharray:none;stroke-opacity:1"
         d="m 409.92443,67.606777 c 0.56992,-6.920069 1.24896,-16.207631 0.98854,-19.576698 0,0 -4.33532,-0.446563 -4.4737,-2.086129 -0.15998,-1.895511 2.80006,-3.074281 4.69467,-3.244546 1.61716,-0.145331 4.27964,0.394505 4.43673,2.010566 0.18446,1.89769 -4.6577,3.320109 -4.6577,3.320109"
         id="path2143"
         sodipodi:nodetypes="cssssc" /></g><path
       style="opacity:1;fill:none;stroke:#1a1a1a;stroke-width:1.05833;stroke-linecap:round;stroke-linejoin:round;stroke-dasharray:none"
       d="m 447.1584,-62.404741 c -0.60695,0.162632 -0.8937,1.963222 -0.3448,2.512126 0.7702,0.770196 1.96887,1.116194 3.17404,0.793269 0.91634,-0.245532 1.14397,-1.857669 0.65381,-2.646946 -0.56155,-0.90423 -2.45491,-0.933938 -3.48305,-0.658449 z"
       id="path1080"
       sodipodi:nodetypes="sssss" /><path
       style="opacity:1;fill:none;stroke:#1a1a1a;stroke-width:1.05833;stroke-linecap:round;stroke-linejoin:round;stroke-dasharray:none"
       d="m 446.86362,-62.166724 c 0.22717,-1.350622 1.42297,-1.456926 1.33965,-3.157278"
       id="path1082"
       sodipodi:nodetypes="cc" /><path
       d="m 419.8044,-97.955694 -2.59925,7.087004 h -1.72606 l -2.59924,-7.087004 h 1.52299 l 1.94944,5.635082 1.93928,-5.635082 z"
       style="font-size:10.1533px;font-family:Poppins;-inkscape-font-specification:'Poppins, Normal';fill:#1a1a1a;stroke-width:3.38443;stroke-linecap:round;stroke-linejoin:round"
       id="path454" /><path
       d="m 423.94695,-90.797617 q -0.99502,0 -1.82759,-0.467052 -0.83258,-0.467052 -1.31993,-1.289469 -0.48736,-0.832571 -0.48736,-1.878361 0,-1.035637 0.48736,-1.858054 0.48735,-0.83257 1.31993,-1.299622 0.83257,-0.467052 1.82759,-0.467052 1.00518,0 1.82759,0.467052 0.83257,0.467052 1.30978,1.299622 0.48736,0.822417 0.48736,1.858054 0,1.04579 -0.48736,1.878361 -0.47721,0.822417 -1.30978,1.289469 -0.83257,0.467052 -1.82759,0.467052 z m 0,-1.269163 q 0.63966,0 1.12702,-0.284292 0.48735,-0.294446 0.76149,-0.832571 0.27414,-0.538125 0.27414,-1.248856 0,-0.710731 -0.27414,-1.238703 -0.27414,-0.538124 -0.76149,-0.822417 -0.48736,-0.284292 -1.12702,-0.284292 -0.63966,0 -1.13717,0.284292 -0.48736,0.284293 -0.7615,0.822417 -0.27414,0.527972 -0.27414,1.238703 0,0.710731 0.27414,1.248856 0.27414,0.538125 0.7615,0.832571 0.49751,0.284292 1.13717,0.284292 z"
       style="font-size:10.1533px;font-family:Poppins;-inkscape-font-specification:'Poppins, Normal';fill:#1a1a1a;stroke-width:3.38443;stroke-linecap:round;stroke-linejoin:round"
       id="path456" /><path
       d="m 428.28241,-94.422346 q 0,-1.04579 0.46705,-1.868207 0.4772,-0.83257 1.28947,-1.289469 0.82242,-0.467052 1.83775,-0.467052 1.18793,0 2.08142,0.609198 0.89349,0.609198 1.24886,1.685448 h -1.63468 q -0.24368,-0.507665 -0.69043,-0.761497 -0.43659,-0.253833 -1.01533,-0.253833 -0.61935,0 -1.10671,0.294446 -0.4772,0.284292 -0.75134,0.812264 -0.26399,0.527971 -0.26399,1.238702 0,0.700578 0.26399,1.238703 0.27414,0.527972 0.75134,0.822417 0.48736,0.284293 1.10671,0.284293 0.57874,0 1.01533,-0.253833 0.44675,-0.263986 0.69043,-0.771651 h 1.63468 q -0.35537,1.086404 -1.24886,1.695602 -0.88333,0.599044 -2.08142,0.599044 -1.01533,0 -1.83775,-0.456898 -0.81227,-0.467052 -1.28947,-1.289469 -0.46705,-0.822418 -0.46705,-1.868208 z"
       style="font-size:10.1533px;font-family:Poppins;-inkscape-font-specification:'Poppins, Normal';fill:#1a1a1a;stroke-width:3.38443;stroke-linecap:round;stroke-linejoin:round"
       id="path458" /><path
       d="m 437.84681,-96.808371 v 1.776827 h 2.38603 v 1.127017 h -2.38603 v 1.87836 h 2.69063 v 1.157477 h -4.11209 v -7.097157 h 4.11209 v 1.157476 z"
       style="font-size:10.1533px;font-family:Poppins;-inkscape-font-specification:'Poppins, Normal';fill:#1a1a1a;stroke-width:3.38443;stroke-linecap:round;stroke-linejoin:round"
       id="path460" /><path
       d="m 450.60952,-97.955694 -2.59925,7.087004 h -1.72606 l -2.59925,-7.087004 h 1.523 l 1.94943,5.635082 1.93928,-5.635082 z"
       style="font-size:10.1533px;font-family:Poppins;-inkscape-font-specification:'Poppins, Normal';fill:#1a1a1a;stroke-width:3.38443;stroke-linecap:round;stroke-linejoin:round"
       id="path462" /><path
       d="m 452.88386,-96.808371 v 1.776827 h 2.38602 v 1.127017 h -2.38602 v 1.87836 h 2.69062 v 1.157477 h -4.11208 v -7.097157 h 4.11208 v 1.157476 z"
       style="font-size:10.1533px;font-family:Poppins;-inkscape-font-specification:'Poppins, Normal';fill:#1a1a1a;stroke-width:3.38443;stroke-linecap:round;stroke-linejoin:round"
       id="path464" /><path
       d="m 462.92547,-90.86869 h -1.42146 l -3.2186,-4.863431 v 4.863431 h -1.42146 v -7.097157 h 1.42146 l 3.2186,4.873584 v -4.873584 h 1.42146 z"
       style="font-size:10.1533px;font-family:Poppins;-inkscape-font-specification:'Poppins, Normal';fill:#1a1a1a;stroke-width:3.38443;stroke-linecap:round;stroke-linejoin:round"
       id="path466" /><path
       d="m 463.98142,-94.422346 q 0,-1.04579 0.46705,-1.868207 0.47721,-0.83257 1.28947,-1.289469 0.82242,-0.467052 1.83775,-0.467052 1.18793,0 2.08142,0.609198 0.89349,0.609198 1.24886,1.685448 h -1.63468 q -0.24368,-0.507665 -0.69043,-0.761497 -0.43659,-0.253833 -1.01533,-0.253833 -0.61935,0 -1.10671,0.294446 -0.4772,0.284292 -0.75134,0.812264 -0.26399,0.527971 -0.26399,1.238702 0,0.700578 0.26399,1.238703 0.27414,0.527972 0.75134,0.822417 0.48736,0.284293 1.10671,0.284293 0.57874,0 1.01533,-0.253833 0.44675,-0.263986 0.69043,-0.771651 h 1.63468 q -0.35537,1.086404 -1.24886,1.695602 -0.88333,0.599044 -2.08142,0.599044 -1.01533,0 -1.83775,-0.456898 -0.81226,-0.467052 -1.28947,-1.289469 -0.46705,-0.822418 -0.46705,-1.868208 z"
       style="font-size:10.1533px;font-family:Poppins;-inkscape-font-specification:'Poppins, Normal';fill:#1a1a1a;stroke-width:3.38443;stroke-linecap:round;stroke-linejoin:round"
       id="path468" /><path
       d="m 473.54582,-96.808371 v 1.776827 h 2.38603 v 1.127017 h -2.38603 v 1.87836 h 2.69063 v 1.157477 h -4.11209 v -7.097157 h 4.11209 v 1.157476 z"
       style="font-size:10.1533px;font-family:Poppins;-inkscape-font-specification:'Poppins, Normal';fill:#1a1a1a;stroke-width:3.38443;stroke-linecap:round;stroke-linejoin:round"
       id="path470" /><path
       d="m 478.92707,-97.955694 v 4.386226 q 0,0.720884 0.37567,1.106709 0.37567,0.375672 1.05594,0.375672 0.69043,0 1.0661,-0.375672 0.37567,-0.385825 0.37567,-1.106709 v -4.386226 h 1.43162 v 4.376072 q 0,0.903644 -0.39598,1.533149 -0.38583,0.619351 -1.04579,0.934103 -0.64981,0.314753 -1.45193,0.314753 -0.79195,0 -1.44176,-0.314753 -0.63966,-0.314752 -1.01533,-0.934103 -0.37568,-0.629505 -0.37568,-1.533149 v -4.376072 z"
       style="font-size:10.1533px;font-family:Poppins;-inkscape-font-specification:'Poppins, Normal';fill:#1a1a1a;stroke-width:3.38443;stroke-linecap:round;stroke-linejoin:round"
       id="path472" /><path
       d="m 486.44052,-98.077534 -0.16246,4.904044 h -1.19809 l -0.1726,-4.904044 z m -0.73104,7.279917 q -0.38583,0 -0.63966,-0.233526 -0.24368,-0.24368 -0.24368,-0.599045 0,-0.355366 0.24368,-0.588891 0.25383,-0.24368 0.63966,-0.24368 0.37567,0 0.61935,0.24368 0.24368,0.233525 0.24368,0.588891 0,0.355365 -0.24368,0.599045 -0.24368,0.233526 -0.61935,0.233526 z"
       style="font-size:10.1533px;font-family:Poppins;-inkscape-font-specification:'Poppins, Normal';fill:#1a1a1a;stroke-width:3.38443;stroke-linecap:round;stroke-linejoin:round"
       id="path474" /><path
       d="m 495.78156,-95.762581 q 0,0.568585 -0.27414,1.066096 -0.26398,0.497512 -0.84272,0.802111 -0.56858,0.304599 -1.44177,0.304599 H 492.035 v 2.721085 h -1.42147 v -7.087004 h 2.6094 q 0.82242,0 1.40116,0.284292 0.57874,0.284293 0.86303,0.781804 0.29444,0.497512 0.29444,1.127017 z m -2.61955,1.025483 q 0.58889,0 0.87319,-0.263986 0.28429,-0.274139 0.28429,-0.761497 0,-1.035637 -1.15748,-1.035637 H 492.035 v 2.06112 z"
       style="font-size:10.1533px;font-family:Poppins;-inkscape-font-specification:'Poppins, Normal';fill:#1a1a1a;stroke-width:3.38443;stroke-linecap:round;stroke-linejoin:round"
       id="path476" /><path
       d="m 501.13235,-92.219079 h -2.82262 l -0.46705,1.350389 h -1.49254 l 2.54848,-7.097157 h 1.65499 l 2.54848,7.097157 h -1.50269 z m -0.38583,-1.13717 -1.02548,-2.964764 -1.02548,2.964764 z"
       style="font-size:10.1533px;font-family:Poppins;-inkscape-font-specification:'Poppins, Normal';fill:#1a1a1a;stroke-width:3.38443;stroke-linecap:round;stroke-linejoin:round"
       id="path478" /><path
       d="m 507.71168,-90.86869 -1.5636,-2.761698 h -0.67012 v 2.761698 h -1.42146 v -7.087004 h 2.66016 q 0.82242,0 1.40116,0.294446 0.57873,0.284292 0.86303,0.781804 0.29444,0.487358 0.29444,1.096556 0,0.700578 -0.40613,1.269163 -0.40613,0.558431 -1.20824,0.771651 l 1.6956,2.873384 z m -2.23372,-3.827795 h 1.18793 q 0.57874,0 0.86304,-0.274139 0.28429,-0.284292 0.28429,-0.781804 0,-0.487358 -0.28429,-0.751344 -0.2843,-0.274139 -0.86304,-0.274139 h -1.18793 z"
       style="font-size:10.1533px;font-family:Poppins;-inkscape-font-specification:'Poppins, Normal';fill:#1a1a1a;stroke-width:3.38443;stroke-linecap:round;stroke-linejoin:round"
       id="path480" /><path
       d="m 514.91038,-92.219079 h -2.82262 l -0.46705,1.350389 h -1.49254 l 2.54848,-7.097157 h 1.65499 l 2.54848,7.097157 h -1.50269 z m -0.38583,-1.13717 -1.02548,-2.964764 -1.02548,2.964764 z"
       style="font-size:10.1533px;font-family:Poppins;-inkscape-font-specification:'Poppins, Normal';fill:#1a1a1a;stroke-width:3.38443;stroke-linecap:round;stroke-linejoin:round"
       id="path482" /><path
       d="m 521.85523,-94.503572 q 0.59905,0.111686 0.98487,0.599045 0.38583,0.487358 0.38583,1.116863 0,0.568585 -0.28429,1.005176 -0.27414,0.426439 -0.80211,0.670118 -0.52798,0.24368 -1.24886,0.24368 h -3.05614 v -7.087004 h 2.92415 q 0.72088,0 1.2387,0.233526 0.52797,0.233526 0.79196,0.649811 0.27414,0.416285 0.27414,0.944257 0,0.619351 -0.33506,1.035637 -0.32491,0.416285 -0.87319,0.588891 z m -2.59924,-0.527972 h 1.29962 q 0.50767,0 0.78181,-0.223372 0.27413,-0.233526 0.27413,-0.659965 0,-0.426438 -0.27413,-0.659964 -0.27414,-0.233526 -0.78181,-0.233526 h -1.29962 z m 1.43161,3.005377 q 0.51782,0 0.80212,-0.243679 0.29444,-0.243679 0.29444,-0.690424 0,-0.456899 -0.3046,-0.710731 -0.3046,-0.263986 -0.82242,-0.263986 h -1.40115 v 1.90882 z"
       style="font-size:10.1533px;font-family:Poppins;-inkscape-font-specification:'Poppins, Normal';fill:#1a1a1a;stroke-width:3.38443;stroke-linecap:round;stroke-linejoin:round"
       id="path484" /><path
       d="m 525.78456,-96.808371 v 1.776827 h 2.38603 v 1.127017 h -2.38603 v 1.87836 h 2.69063 v 1.157477 h -4.11209 v -7.097157 h 4.11209 v 1.157476 z m 1.6956,-2.619552 -2.33526,1.066097 v -1.01533 l 2.33526,-1.208244 z"
       style="font-size:10.1533px;font-family:Poppins;-inkscape-font-specification:'Poppins, Normal';fill:#1a1a1a;stroke-width:3.38443;stroke-linecap:round;stroke-linejoin:round"
       id="path486" /><path
       d="m 535.82617,-90.86869 h -1.42146 l -3.2186,-4.863431 v 4.863431 h -1.42146 v -7.097157 h 1.42146 l 3.2186,4.873584 v -4.873584 h 1.42146 z"
       style="font-size:10.1533px;font-family:Poppins;-inkscape-font-specification:'Poppins, Normal';fill:#1a1a1a;stroke-width:3.38443;stroke-linecap:round;stroke-linejoin:round"
       id="path488" /><path
       d="m 539.67427,-90.797617 q -0.74119,0 -1.34023,-0.253833 -0.5889,-0.253832 -0.93411,-0.731038 -0.34521,-0.477205 -0.35536,-1.127016 h 1.52299 q 0.0305,0.436592 0.3046,0.690425 0.28429,0.253832 0.77165,0.253832 0.49751,0 0.78181,-0.233526 0.28429,-0.243679 0.28429,-0.629504 0,-0.314753 -0.19291,-0.517819 -0.19292,-0.203066 -0.48736,-0.314752 -0.2843,-0.12184 -0.79196,-0.263986 -0.69042,-0.203066 -1.12702,-0.395979 -0.42644,-0.203066 -0.74119,-0.599044 -0.3046,-0.406132 -0.3046,-1.07625 0,-0.629505 0.31476,-1.096557 0.31475,-0.467051 0.88333,-0.710731 0.56859,-0.253832 1.29963,-0.253832 1.09655,0 1.77682,0.538125 0.69043,0.527971 0.7615,1.482382 h -1.56361 q -0.0203,-0.365519 -0.31475,-0.599045 -0.28429,-0.243679 -0.7615,-0.243679 -0.41628,0 -0.67012,0.213219 -0.24367,0.213219 -0.24367,0.619351 0,0.284293 0.18275,0.477205 0.19292,0.18276 0.46706,0.304599 0.28429,0.111687 0.79195,0.263986 0.69043,0.203066 1.12702,0.406132 0.43659,0.203066 0.75134,0.609198 0.31476,0.406132 0.31476,1.066097 0,0.568585 -0.29445,1.055943 -0.29444,0.487358 -0.86303,0.781804 -0.56858,0.284293 -1.35039,0.284293 z"
       style="font-size:10.1533px;font-family:Poppins;-inkscape-font-specification:'Poppins, Normal';fill:#1a1a1a;stroke-width:3.38443;stroke-linecap:round;stroke-linejoin:round"
       id="path490" /><path
       d="m 545.24842,-98.077534 -0.16245,4.904044 h -1.19809 l -0.17261,-4.904044 z m -0.73103,7.279917 q -0.38583,0 -0.63966,-0.233526 -0.24368,-0.24368 -0.24368,-0.599045 0,-0.355366 0.24368,-0.588891 0.25383,-0.24368 0.63966,-0.24368 0.37567,0 0.61935,0.24368 0.24368,0.233525 0.24368,0.588891 0,0.355365 -0.24368,0.599045 -0.24368,0.233526 -0.61935,0.233526 z"
       style="font-size:10.1533px;font-family:Poppins;-inkscape-font-specification:'Poppins, Normal';fill:#1a1a1a;stroke-width:3.38443;stroke-linecap:round;stroke-linejoin:round"
       id="path492" /></g></svg>
